<svg width="2129.000000" height="1184.812500" viewBox="0 0 2129 1184.81" fill="none" xmlns="http://www.w3.org/2000/svg" xmlns:xlink="http://www.w3.org/1999/xlink">
	<desc>
			Created with Pixso.
	</desc>
	<defs/>
	<path id="Многоугольник 1" d="M241.79 929C-5.57 943.59 -99.97 959.9 135.7 1061C-131.1 1339.58 241.79 1061 347.88 1061C453.96 1061 486.68 948.58 241.79 929Z" fill="#3481F5" fill-opacity="0.090196" fill-rule="evenodd"/>
	<path id="Многоугольник 2" d="M2013.07 177.39C2138.98 77.78 1867.42 80.78 1778.5 84.21C1764.82 84.74 1755.68 98.15 1759.21 111.37C1811.73 308.6 1649.36 244.62 1491.06 239.51C1478.34 239.1 1468.6 250.46 1469.84 263.13C1477.93 346.36 1472.08 403.04 1725.42 440.34C1738.78 442.31 1750.16 431.13 1750.56 417.63C1753.6 315.92 1847.96 345.27 1967.47 389.08C1990.72 397.61 2013.52 355.22 1998.54 335.5C1961.77 287.07 1947.4 229.34 2013.07 177.39Z" fill="#3481F5" fill-opacity="0.090196" fill-rule="evenodd"/>
	<path id="Эллипс 2" d="M1109.32 884.1C1080.87 860.38 1293.6 1011.49 1383.94 988.63C1437.83 975 1201.88 884.1 1258.13 884.1C1408.65 884.1 1196.51 749.52 1151.06 787.4C1135.62 800.28 1083.38 660.5 1019.81 682.31C962.34 702.03 1051.38 817.58 1019.81 817.58C953.33 817.58 1138.76 908.63 1109.32 884.1Z" fill="#3481F5" fill-opacity="0.090196" fill-rule="evenodd"/>
	<g style="mix-blend-mode:normal">
		<path id="Прямоугольник 17" d="M440.95 184.95C459.18 168.92 589.98 52.54 496.27 96.23C473.13 107.02 456.3 114.87 444.12 120.55C432.06 126.17 393.44 126.5 380.98 121.84L308.8 94.83C301.34 92.04 293.02 95.56 289.74 102.82C189.43 324.59 174.67 173.77 110.06 178.74C104.86 179.14 100.91 183.23 99.44 188.23C57.69 331.11 46.45 398.58 209.37 294.28C211.26 293.07 212.85 291.45 214.03 289.54C339.13 87.46 352.84 215.88 436.31 187.66C438.03 187.09 439.59 186.14 440.95 184.95Z" fill="#3481F5" fill-opacity="0.090196" fill-rule="evenodd"/>
	</g>
</svg>
