<svg width="950" height="600" viewBox="0 0 950 600" fill="none" xmlns="http://www.w3.org/2000/svg">
<rect width="950" height="600" fill="#EEEEEE"/>
<path d="M254.648 307.275L255.698 304.9C256.448 305.417 257.265 305.817 258.148 306.1C259.048 306.367 259.94 306.508 260.823 306.525C261.706 306.542 262.506 306.442 263.223 306.225C263.956 306.008 264.54 305.683 264.973 305.25C265.406 304.817 265.623 304.275 265.623 303.625C265.623 302.842 265.298 302.258 264.648 301.875C264.015 301.475 263.148 301.275 262.048 301.275H257.973V298.725H261.798C262.781 298.725 263.54 298.525 264.073 298.125C264.623 297.725 264.898 297.183 264.898 296.5C264.898 295.933 264.715 295.467 264.348 295.1C263.998 294.733 263.515 294.458 262.898 294.275C262.298 294.092 261.615 294.008 260.848 294.025C260.098 294.025 259.315 294.142 258.498 294.375C257.681 294.592 256.906 294.917 256.173 295.35L255.148 292.725C256.248 292.142 257.398 291.733 258.598 291.5C259.815 291.267 260.99 291.2 262.123 291.3C263.256 291.4 264.273 291.658 265.173 292.075C266.09 292.492 266.823 293.042 267.373 293.725C267.923 294.392 268.198 295.183 268.198 296.1C268.198 296.933 267.973 297.675 267.523 298.325C267.09 298.958 266.49 299.45 265.723 299.8C264.956 300.15 264.065 300.325 263.048 300.325L263.173 299.525C264.323 299.525 265.323 299.725 266.173 300.125C267.04 300.508 267.706 301.042 268.173 301.725C268.656 302.408 268.898 303.2 268.898 304.1C268.898 304.95 268.681 305.708 268.248 306.375C267.815 307.025 267.223 307.575 266.473 308.025C265.723 308.458 264.865 308.783 263.898 309C262.931 309.2 261.915 309.275 260.848 309.225C259.781 309.175 258.715 308.992 257.648 308.675C256.598 308.358 255.598 307.892 254.648 307.275ZM281.408 307.55V298.3H276.283L276.208 300.45C276.175 301.217 276.125 301.958 276.058 302.675C275.992 303.375 275.883 304.025 275.733 304.625C275.583 305.208 275.367 305.692 275.083 306.075C274.8 306.458 274.425 306.708 273.958 306.825L270.858 306.35C271.358 306.35 271.758 306.192 272.058 305.875C272.375 305.542 272.617 305.092 272.783 304.525C272.967 303.942 273.1 303.283 273.183 302.55C273.267 301.8 273.325 301.025 273.358 300.225L273.533 295.65H284.533V307.55H281.408ZM270.383 311.975V306.35H286.508V311.975H283.583V309H273.283V311.975H270.383ZM295.524 309.175C294.041 309.175 292.741 308.883 291.624 308.3C290.524 307.7 289.666 306.883 289.049 305.85C288.449 304.817 288.149 303.642 288.149 302.325C288.149 300.992 288.441 299.817 289.024 298.8C289.624 297.767 290.441 296.958 291.474 296.375C292.524 295.792 293.716 295.5 295.049 295.5C296.349 295.5 297.508 295.783 298.524 296.35C299.541 296.917 300.341 297.717 300.924 298.75C301.508 299.783 301.799 301 301.799 302.4C301.799 302.533 301.791 302.683 301.774 302.85C301.774 303.017 301.766 303.175 301.749 303.325H290.624V301.25H300.099L298.874 301.9C298.891 301.133 298.733 300.458 298.399 299.875C298.066 299.292 297.608 298.833 297.024 298.5C296.458 298.167 295.799 298 295.049 298C294.283 298 293.608 298.167 293.024 298.5C292.458 298.833 292.008 299.3 291.674 299.9C291.358 300.483 291.199 301.175 291.199 301.975V302.475C291.199 303.275 291.383 303.983 291.749 304.6C292.116 305.217 292.633 305.692 293.299 306.025C293.966 306.358 294.733 306.525 295.599 306.525C296.349 306.525 297.024 306.408 297.624 306.175C298.224 305.942 298.758 305.575 299.224 305.075L300.899 307C300.299 307.7 299.541 308.242 298.624 308.625C297.724 308.992 296.691 309.175 295.524 309.175ZM311.292 309.175C309.892 309.175 308.642 308.883 307.542 308.3C306.459 307.7 305.609 306.883 304.992 305.85C304.376 304.817 304.067 303.642 304.067 302.325C304.067 300.992 304.376 299.817 304.992 298.8C305.609 297.767 306.459 296.958 307.542 296.375C308.642 295.792 309.892 295.5 311.292 295.5C312.592 295.5 313.734 295.767 314.717 296.3C315.717 296.817 316.476 297.583 316.992 298.6L314.592 300C314.192 299.367 313.701 298.9 313.117 298.6C312.551 298.3 311.934 298.15 311.267 298.15C310.501 298.15 309.809 298.317 309.192 298.65C308.576 298.983 308.092 299.467 307.742 300.1C307.392 300.717 307.217 301.458 307.217 302.325C307.217 303.192 307.392 303.942 307.742 304.575C308.092 305.192 308.576 305.667 309.192 306C309.809 306.333 310.501 306.5 311.267 306.5C311.934 306.5 312.551 306.35 313.117 306.05C313.701 305.75 314.192 305.283 314.592 304.65L316.992 306.05C316.476 307.05 315.717 307.825 314.717 308.375C313.734 308.908 312.592 309.175 311.292 309.175ZM326.444 300.05C328.16 300.05 329.469 300.433 330.369 301.2C331.269 301.967 331.719 303.05 331.719 304.45C331.719 305.9 331.219 307.033 330.219 307.85C329.219 308.65 327.81 309.042 325.994 309.025L319.744 309V295.65H322.869V300.025L326.444 300.05ZM325.719 306.725C326.635 306.742 327.335 306.55 327.819 306.15C328.302 305.75 328.544 305.167 328.544 304.4C328.544 303.633 328.302 303.083 327.819 302.75C327.352 302.4 326.652 302.217 325.719 302.2L322.869 302.175V306.7L325.719 306.725ZM347.749 309.25C346.649 309.25 345.666 309.083 344.799 308.75C343.933 308.417 343.183 307.908 342.549 307.225C341.933 306.525 341.458 305.642 341.124 304.575C340.791 303.508 340.624 302.242 340.624 300.775C340.624 299.708 340.716 298.733 340.899 297.85C341.083 296.967 341.358 296.175 341.724 295.475C342.091 294.758 342.549 294.125 343.099 293.575C343.666 293.025 344.324 292.567 345.074 292.2C345.824 291.833 346.674 291.55 347.624 291.35L353.824 290.025L354.274 292.825L348.649 293.975C348.333 294.042 347.949 294.142 347.499 294.275C347.066 294.392 346.616 294.575 346.149 294.825C345.699 295.058 345.274 295.4 344.874 295.85C344.491 296.283 344.174 296.85 343.924 297.55C343.691 298.233 343.574 299.092 343.574 300.125C343.574 300.442 343.583 300.683 343.599 300.85C343.633 301 343.658 301.167 343.674 301.35C343.708 301.517 343.724 301.767 343.724 302.1L342.549 300.875C342.883 300.025 343.341 299.3 343.924 298.7C344.524 298.083 345.216 297.617 345.999 297.3C346.799 296.967 347.666 296.8 348.599 296.8C349.849 296.8 350.958 297.058 351.924 297.575C352.891 298.092 353.649 298.817 354.199 299.75C354.749 300.683 355.024 301.742 355.024 302.925C355.024 304.158 354.724 305.25 354.124 306.2C353.524 307.15 352.674 307.9 351.574 308.45C350.491 308.983 349.216 309.25 347.749 309.25ZM347.999 306.725C348.749 306.725 349.408 306.567 349.974 306.25C350.558 305.917 351.008 305.467 351.324 304.9C351.658 304.333 351.824 303.7 351.824 303C351.824 302.3 351.658 301.692 351.324 301.175C351.008 300.642 350.558 300.217 349.974 299.9C349.408 299.583 348.733 299.425 347.949 299.425C347.199 299.425 346.524 299.575 345.924 299.875C345.341 300.175 344.883 300.592 344.549 301.125C344.233 301.642 344.074 302.242 344.074 302.925C344.074 303.625 344.241 304.267 344.574 304.85C344.908 305.433 345.366 305.892 345.949 306.225C346.549 306.558 347.233 306.725 347.999 306.725ZM358.883 314.025C358.233 314.025 357.583 313.917 356.933 313.7C356.283 313.483 355.741 313.183 355.308 312.8L356.558 310.5C356.875 310.783 357.233 311.008 357.633 311.175C358.033 311.342 358.441 311.425 358.858 311.425C359.425 311.425 359.883 311.283 360.233 311C360.583 310.717 360.908 310.242 361.208 309.575L361.983 307.825L362.233 307.45L367.283 295.65H370.283L364.033 310.075C363.616 311.075 363.15 311.867 362.633 312.45C362.133 313.033 361.566 313.442 360.933 313.675C360.316 313.908 359.633 314.025 358.883 314.025ZM361.633 309.475L355.608 295.65H358.858L363.758 307.175L361.633 309.475ZM380.798 307.55V298.3H375.673L375.598 300.45C375.565 301.217 375.515 301.958 375.448 302.675C375.381 303.375 375.273 304.025 375.123 304.625C374.973 305.208 374.756 305.692 374.473 306.075C374.19 306.458 373.815 306.708 373.348 306.825L370.248 306.35C370.748 306.35 371.148 306.192 371.448 305.875C371.765 305.542 372.006 305.092 372.173 304.525C372.356 303.942 372.49 303.283 372.573 302.55C372.656 301.8 372.715 301.025 372.748 300.225L372.923 295.65H383.923V307.55H380.798ZM369.773 311.975V306.35H385.898V311.975H382.973V309H372.673V311.975H369.773ZM394.914 309.175C393.431 309.175 392.131 308.883 391.014 308.3C389.914 307.7 389.056 306.883 388.439 305.85C387.839 304.817 387.539 303.642 387.539 302.325C387.539 300.992 387.831 299.817 388.414 298.8C389.014 297.767 389.831 296.958 390.864 296.375C391.914 295.792 393.106 295.5 394.439 295.5C395.739 295.5 396.897 295.783 397.914 296.35C398.931 296.917 399.731 297.717 400.314 298.75C400.897 299.783 401.189 301 401.189 302.4C401.189 302.533 401.181 302.683 401.164 302.85C401.164 303.017 401.156 303.175 401.139 303.325H390.014V301.25H399.489L398.264 301.9C398.281 301.133 398.122 300.458 397.789 299.875C397.456 299.292 396.997 298.833 396.414 298.5C395.847 298.167 395.189 298 394.439 298C393.672 298 392.997 298.167 392.414 298.5C391.847 298.833 391.397 299.3 391.064 299.9C390.747 300.483 390.589 301.175 390.589 301.975V302.475C390.589 303.275 390.772 303.983 391.139 304.6C391.506 305.217 392.022 305.692 392.689 306.025C393.356 306.358 394.122 306.525 394.989 306.525C395.739 306.525 396.414 306.408 397.014 306.175C397.614 305.942 398.147 305.575 398.614 305.075L400.289 307C399.689 307.7 398.931 308.242 398.014 308.625C397.114 308.992 396.081 309.175 394.914 309.175ZM406.869 309V297.55L407.594 298.3H402.169V295.65H414.669V298.3H409.269L409.994 297.55V309H406.869ZM423.845 309V295.65H430.37C431.987 295.65 433.253 295.95 434.17 296.55C435.103 297.15 435.57 298 435.57 299.1C435.57 300.183 435.137 301.033 434.27 301.65C433.403 302.25 432.253 302.55 430.82 302.55L431.195 301.775C432.812 301.775 434.012 302.075 434.795 302.675C435.595 303.258 435.995 304.117 435.995 305.25C435.995 306.433 435.553 307.358 434.67 308.025C433.787 308.675 432.445 309 430.645 309H423.845ZM426.82 306.725H430.395C431.245 306.725 431.887 306.592 432.32 306.325C432.753 306.042 432.97 305.617 432.97 305.05C432.97 304.45 432.77 304.008 432.37 303.725C431.97 303.442 431.345 303.3 430.495 303.3H426.82V306.725ZM426.82 301.225H430.095C430.895 301.225 431.495 301.083 431.895 300.8C432.312 300.5 432.52 300.083 432.52 299.55C432.52 299 432.312 298.592 431.895 298.325C431.495 298.058 430.895 297.925 430.095 297.925H426.82V301.225ZM447.424 309V306.3L447.249 305.725V301C447.249 300.083 446.974 299.375 446.424 298.875C445.874 298.358 445.04 298.1 443.924 298.1C443.174 298.1 442.432 298.217 441.699 298.45C440.982 298.683 440.374 299.008 439.874 299.425L438.649 297.15C439.365 296.6 440.215 296.192 441.199 295.925C442.199 295.642 443.232 295.5 444.299 295.5C446.232 295.5 447.724 295.967 448.774 296.9C449.84 297.817 450.374 299.242 450.374 301.175V309H447.424ZM443.224 309.175C442.224 309.175 441.349 309.008 440.599 308.675C439.849 308.325 439.265 307.85 438.849 307.25C438.449 306.633 438.249 305.942 438.249 305.175C438.249 304.425 438.424 303.75 438.774 303.15C439.14 302.55 439.732 302.075 440.549 301.725C441.365 301.375 442.449 301.2 443.799 301.2H447.674V303.275H444.024C442.957 303.275 442.24 303.45 441.874 303.8C441.507 304.133 441.324 304.55 441.324 305.05C441.324 305.617 441.549 306.067 441.999 306.4C442.449 306.733 443.074 306.9 443.874 306.9C444.64 306.9 445.324 306.725 445.924 306.375C446.54 306.025 446.982 305.508 447.249 304.825L447.774 306.7C447.474 307.483 446.932 308.092 446.149 308.525C445.382 308.958 444.407 309.175 443.224 309.175ZM463.216 306.35L462.541 307.1V295.65H465.666V307.1L464.916 306.35H471.516L470.791 307.1V295.65H473.916V309H454.241V295.65H457.366V307.1L456.641 306.35H463.216ZM484.343 309.175C482.859 309.175 481.559 308.883 480.443 308.3C479.343 307.7 478.484 306.883 477.868 305.85C477.268 304.817 476.968 303.642 476.968 302.325C476.968 300.992 477.259 299.817 477.843 298.8C478.443 297.767 479.259 296.958 480.293 296.375C481.343 295.792 482.534 295.5 483.868 295.5C485.168 295.5 486.326 295.783 487.343 296.35C488.359 296.917 489.159 297.717 489.743 298.75C490.326 299.783 490.618 301 490.618 302.4C490.618 302.533 490.609 302.683 490.593 302.85C490.593 303.017 490.584 303.175 490.568 303.325H479.443V301.25H488.918L487.693 301.9C487.709 301.133 487.551 300.458 487.218 299.875C486.884 299.292 486.426 298.833 485.843 298.5C485.276 298.167 484.618 298 483.868 298C483.101 298 482.426 298.167 481.843 298.5C481.276 298.833 480.826 299.3 480.493 299.9C480.176 300.483 480.018 301.175 480.018 301.975V302.475C480.018 303.275 480.201 303.983 480.568 304.6C480.934 305.217 481.451 305.692 482.118 306.025C482.784 306.358 483.551 306.525 484.418 306.525C485.168 306.525 485.843 306.408 486.443 306.175C487.043 305.942 487.576 305.575 488.043 305.075L489.718 307C489.118 307.7 488.359 308.242 487.443 308.625C486.543 308.992 485.509 309.175 484.343 309.175ZM500.945 309V295.65H504.07V304.45L511.445 295.65H514.295V309H511.17V300.2L503.82 309H500.945ZM522.553 309.225C521.536 309.225 520.528 309.108 519.528 308.875C518.544 308.625 517.653 308.275 516.853 307.825L517.728 305.5C518.378 305.867 519.111 306.15 519.928 306.35C520.744 306.55 521.561 306.65 522.378 306.65C523.078 306.65 523.678 306.583 524.178 306.45C524.678 306.3 525.061 306.083 525.328 305.8C525.611 305.517 525.753 305.192 525.753 304.825C525.753 304.292 525.519 303.892 525.053 303.625C524.603 303.342 523.953 303.2 523.103 303.2H520.528V301.1H522.853C523.386 301.1 523.836 301.042 524.203 300.925C524.586 300.808 524.878 300.633 525.078 300.4C525.278 300.167 525.378 299.892 525.378 299.575C525.378 299.258 525.253 298.983 525.003 298.75C524.769 298.5 524.428 298.317 523.978 298.2C523.528 298.067 522.986 298 522.353 298C521.686 298 520.994 298.083 520.278 298.25C519.578 298.417 518.861 298.658 518.128 298.975L517.328 296.675C518.178 296.292 519.003 296 519.803 295.8C520.619 295.583 521.428 295.467 522.228 295.45C523.444 295.4 524.528 295.525 525.478 295.825C526.428 296.125 527.178 296.558 527.728 297.125C528.278 297.692 528.553 298.358 528.553 299.125C528.553 299.758 528.353 300.333 527.953 300.85C527.569 301.35 527.036 301.742 526.353 302.025C525.686 302.308 524.919 302.45 524.053 302.45L524.153 301.775C525.636 301.775 526.803 302.075 527.653 302.675C528.503 303.258 528.928 304.058 528.928 305.075C528.928 305.892 528.653 306.617 528.103 307.25C527.553 307.867 526.794 308.35 525.828 308.7C524.878 309.05 523.786 309.225 522.553 309.225ZM538.096 309.175C536.729 309.175 535.513 308.883 534.446 308.3C533.379 307.7 532.538 306.883 531.921 305.85C531.304 304.817 530.996 303.642 530.996 302.325C530.996 300.992 531.304 299.817 531.921 298.8C532.538 297.767 533.379 296.958 534.446 296.375C535.513 295.792 536.729 295.5 538.096 295.5C539.479 295.5 540.704 295.792 541.771 296.375C542.854 296.958 543.696 297.758 544.296 298.775C544.913 299.792 545.221 300.975 545.221 302.325C545.221 303.642 544.913 304.817 544.296 305.85C543.696 306.883 542.854 307.7 541.771 308.3C540.704 308.883 539.479 309.175 538.096 309.175ZM538.096 306.5C538.863 306.5 539.546 306.333 540.146 306C540.746 305.667 541.213 305.183 541.546 304.55C541.896 303.917 542.071 303.175 542.071 302.325C542.071 301.458 541.896 300.717 541.546 300.1C541.213 299.467 540.746 298.983 540.146 298.65C539.546 298.317 538.871 298.15 538.121 298.15C537.354 298.15 536.671 298.317 536.071 298.65C535.488 298.983 535.021 299.467 534.671 300.1C534.321 300.717 534.146 301.458 534.146 302.325C534.146 303.175 534.321 303.917 534.671 304.55C535.021 305.183 535.488 305.667 536.071 306C536.671 306.333 537.346 306.5 538.096 306.5ZM554.683 309.25C553.583 309.25 552.6 309.083 551.733 308.75C550.866 308.417 550.116 307.908 549.483 307.225C548.866 306.525 548.391 305.642 548.058 304.575C547.725 303.508 547.558 302.242 547.558 300.775C547.558 299.708 547.65 298.733 547.833 297.85C548.016 296.967 548.291 296.175 548.658 295.475C549.025 294.758 549.483 294.125 550.033 293.575C550.6 293.025 551.258 292.567 552.008 292.2C552.758 291.833 553.608 291.55 554.558 291.35L560.758 290.025L561.208 292.825L555.583 293.975C555.266 294.042 554.883 294.142 554.433 294.275C554 294.392 553.55 294.575 553.083 294.825C552.633 295.058 552.208 295.4 551.808 295.85C551.425 296.283 551.108 296.85 550.858 297.55C550.625 298.233 550.508 299.092 550.508 300.125C550.508 300.442 550.516 300.683 550.533 300.85C550.566 301 550.591 301.167 550.608 301.35C550.641 301.517 550.658 301.767 550.658 302.1L549.483 300.875C549.816 300.025 550.275 299.3 550.858 298.7C551.458 298.083 552.15 297.617 552.933 297.3C553.733 296.967 554.6 296.8 555.533 296.8C556.783 296.8 557.891 297.058 558.858 297.575C559.825 298.092 560.583 298.817 561.133 299.75C561.683 300.683 561.958 301.742 561.958 302.925C561.958 304.158 561.658 305.25 561.058 306.2C560.458 307.15 559.608 307.9 558.508 308.45C557.425 308.983 556.15 309.25 554.683 309.25ZM554.933 306.725C555.683 306.725 556.341 306.567 556.908 306.25C557.491 305.917 557.941 305.467 558.258 304.9C558.591 304.333 558.758 303.7 558.758 303C558.758 302.3 558.591 301.692 558.258 301.175C557.941 300.642 557.491 300.217 556.908 299.9C556.341 299.583 555.666 299.425 554.883 299.425C554.133 299.425 553.458 299.575 552.858 299.875C552.275 300.175 551.816 300.592 551.483 301.125C551.166 301.642 551.008 302.242 551.008 302.925C551.008 303.625 551.175 304.267 551.508 304.85C551.841 305.433 552.3 305.892 552.883 306.225C553.483 306.558 554.166 306.725 554.933 306.725ZM572.383 309.175C571.299 309.175 570.308 308.925 569.408 308.425C568.524 307.925 567.816 307.175 567.283 306.175C566.766 305.158 566.508 303.875 566.508 302.325C566.508 300.758 566.758 299.475 567.258 298.475C567.774 297.475 568.474 296.733 569.358 296.25C570.241 295.75 571.249 295.5 572.383 295.5C573.699 295.5 574.858 295.783 575.858 296.35C576.874 296.917 577.674 297.708 578.258 298.725C578.858 299.742 579.158 300.942 579.158 302.325C579.158 303.708 578.858 304.917 578.258 305.95C577.674 306.967 576.874 307.758 575.858 308.325C574.858 308.892 573.699 309.175 572.383 309.175ZM564.983 313.85V295.65H567.958V298.8L567.858 302.35L568.108 305.9V313.85H564.983ZM572.033 306.5C572.783 306.5 573.449 306.333 574.033 306C574.633 305.667 575.108 305.183 575.458 304.55C575.808 303.917 575.983 303.175 575.983 302.325C575.983 301.458 575.808 300.717 575.458 300.1C575.108 299.467 574.633 298.983 574.033 298.65C573.449 298.317 572.783 298.15 572.033 298.15C571.283 298.15 570.608 298.317 570.008 298.65C569.408 298.983 568.933 299.467 568.583 300.1C568.233 300.717 568.058 301.458 568.058 302.325C568.058 303.175 568.233 303.917 568.583 304.55C568.933 305.183 569.408 305.667 570.008 306C570.608 306.333 571.283 306.5 572.033 306.5ZM590.197 309V306.3L590.022 305.725V301C590.022 300.083 589.747 299.375 589.197 298.875C588.647 298.358 587.814 298.1 586.697 298.1C585.947 298.1 585.205 298.217 584.472 298.45C583.755 298.683 583.147 299.008 582.647 299.425L581.422 297.15C582.139 296.6 582.989 296.192 583.972 295.925C584.972 295.642 586.005 295.5 587.072 295.5C589.005 295.5 590.497 295.967 591.547 296.9C592.614 297.817 593.147 299.242 593.147 301.175V309H590.197ZM585.997 309.175C584.997 309.175 584.122 309.008 583.372 308.675C582.622 308.325 582.039 307.85 581.622 307.25C581.222 306.633 581.022 305.942 581.022 305.175C581.022 304.425 581.197 303.75 581.547 303.15C581.914 302.55 582.505 302.075 583.322 301.725C584.139 301.375 585.222 301.2 586.572 301.2H590.447V303.275H586.797C585.73 303.275 585.014 303.45 584.647 303.8C584.28 304.133 584.097 304.55 584.097 305.05C584.097 305.617 584.322 306.067 584.772 306.4C585.222 306.733 585.847 306.9 586.647 306.9C587.414 306.9 588.097 306.725 588.697 306.375C589.314 306.025 589.755 305.508 590.022 304.825L590.547 306.7C590.247 307.483 589.705 308.092 588.922 308.525C588.155 308.958 587.18 309.175 585.997 309.175ZM612.939 309L609.039 302.6L611.589 301.025L616.664 309H612.939ZM606.514 303.65V301.05H610.989V303.65H606.514ZM611.889 302.7L608.939 302.35L612.989 295.65H616.314L611.889 302.7ZM598.839 309H595.139L600.189 301.025L602.739 302.6L598.839 309ZM607.439 309H604.339V295.65H607.439V309ZM605.264 303.65H600.814V301.05H605.264V303.65ZM599.889 302.7L595.464 295.65H598.789L602.814 302.35L599.889 302.7ZM624.772 309.175C623.289 309.175 621.989 308.883 620.872 308.3C619.772 307.7 618.914 306.883 618.297 305.85C617.697 304.817 617.397 303.642 617.397 302.325C617.397 300.992 617.689 299.817 618.272 298.8C618.872 297.767 619.689 296.958 620.722 296.375C621.772 295.792 622.964 295.5 624.297 295.5C625.597 295.5 626.756 295.783 627.772 296.35C628.789 296.917 629.589 297.717 630.172 298.75C630.756 299.783 631.047 301 631.047 302.4C631.047 302.533 631.039 302.683 631.022 302.85C631.022 303.017 631.014 303.175 630.997 303.325H619.872V301.25H629.347L628.122 301.9C628.139 301.133 627.981 300.458 627.647 299.875C627.314 299.292 626.856 298.833 626.272 298.5C625.706 298.167 625.047 298 624.297 298C623.531 298 622.856 298.167 622.272 298.5C621.706 298.833 621.256 299.3 620.922 299.9C620.606 300.483 620.447 301.175 620.447 301.975V302.475C620.447 303.275 620.631 303.983 620.997 304.6C621.364 305.217 621.881 305.692 622.547 306.025C623.214 306.358 623.981 306.525 624.847 306.525C625.597 306.525 626.272 306.408 626.872 306.175C627.472 305.942 628.006 305.575 628.472 305.075L630.147 307C629.547 307.7 628.789 308.242 627.872 308.625C626.972 308.992 625.939 309.175 624.772 309.175ZM634.465 309V295.65H637.59V301.075H644.315V295.65H647.44V309H644.315V303.725H637.59V309H634.465ZM651.628 309V295.65H654.753V304.45L662.128 295.65H664.978V309H661.853V300.2L654.503 309H651.628ZM675.407 309.175C673.924 309.175 672.624 308.883 671.507 308.3C670.407 307.7 669.549 306.883 668.932 305.85C668.332 304.817 668.032 303.642 668.032 302.325C668.032 300.992 668.324 299.817 668.907 298.8C669.507 297.767 670.324 296.958 671.357 296.375C672.407 295.792 673.599 295.5 674.932 295.5C676.232 295.5 677.39 295.783 678.407 296.35C679.424 296.917 680.224 297.717 680.807 298.75C681.39 299.783 681.682 301 681.682 302.4C681.682 302.533 681.674 302.683 681.657 302.85C681.657 303.017 681.649 303.175 681.632 303.325H670.507V301.25H679.982L678.757 301.9C678.774 301.133 678.615 300.458 678.282 299.875C677.949 299.292 677.49 298.833 676.907 298.5C676.34 298.167 675.682 298 674.932 298C674.165 298 673.49 298.167 672.907 298.5C672.34 298.833 671.89 299.3 671.557 299.9C671.24 300.483 671.082 301.175 671.082 301.975V302.475C671.082 303.275 671.265 303.983 671.632 304.6C671.999 305.217 672.515 305.692 673.182 306.025C673.849 306.358 674.615 306.525 675.482 306.525C676.232 306.525 676.907 306.408 677.507 306.175C678.107 305.942 678.64 305.575 679.107 305.075L680.782 307C680.182 307.7 679.424 308.242 678.507 308.625C677.607 308.992 676.574 309.175 675.407 309.175Z" fill="black"/>
</svg>
