<svg width="158" height="28" viewBox="0 0 158 28" fill="none" xmlns="http://www.w3.org/2000/svg">
<path d="M10.74 0.76V1.36C10.12 1.38 9.65 1.46 9.33 1.6C9.01 1.72 8.8 1.96 8.7 2.32C8.6 2.66 8.55 3.2 8.55 3.94V18.82C8.55 19.54 8.6 20.08 8.7 20.44C8.82 20.8 9.03 21.04 9.33 21.16C9.65 21.28 10.12 21.36 10.74 21.4V22C10.18 21.96 9.46 21.94 8.58 21.94C7.72 21.92 6.85 21.91 5.97 21.91C4.95 21.91 3.99 21.92 3.09 21.94C2.19 21.94 1.47 21.96 0.93 22V21.4C1.55 21.36 2.01 21.28 2.31 21.16C2.63 21.04 2.84 20.8 2.94 20.44C3.06 20.08 3.12 19.54 3.12 18.82V3.94C3.12 3.2 3.06 2.66 2.94 2.32C2.84 1.96 2.63 1.72 2.31 1.6C2.01 1.46 1.55 1.38 0.93 1.36V0.76C1.47 0.78 2.19 0.799999 3.09 0.819999C3.99 0.839999 4.95 0.849999 5.97 0.849999C6.85 0.849999 7.72 0.839999 8.58 0.819999C9.46 0.799999 10.18 0.78 10.74 0.76ZM9.03 10.66C10.81 10.66 12.34 10.77 13.62 10.99C14.9 11.21 15.91 11.62 16.65 12.22C17.41 12.8 17.91 13.65 18.15 14.77L19.02 18.85C19.18 19.63 19.36 20.17 19.56 20.47C19.76 20.77 20.05 20.91 20.43 20.89C20.63 20.89 20.81 20.85 20.97 20.77C21.13 20.67 21.29 20.53 21.45 20.35L21.87 20.74C21.29 21.34 20.66 21.77 19.98 22.03C19.32 22.29 18.53 22.42 17.61 22.42C16.41 22.42 15.44 22.19 14.7 21.73C13.96 21.27 13.49 20.42 13.29 19.18L12.48 14.32C12.36 13.52 12.16 12.89 11.88 12.43C11.6 11.97 11.19 11.64 10.65 11.44C10.11 11.24 9.37 11.14 8.43 11.14H7.71V10.66H9.03ZM8.4 11.14V10.66C9.28 10.62 10.08 10.36 10.8 9.88C11.54 9.4 12.39 8.61 13.35 7.51L14.76 5.86C15.56 4.94 16 4.15 16.08 3.49C16.18 2.83 16.01 2.31 15.57 1.93C15.15 1.55 14.55 1.35 13.77 1.33V0.76C14.29 0.78 14.78 0.799999 15.24 0.819999C15.72 0.819999 16.22 0.829999 16.74 0.849999C17.26 0.849999 17.85 0.849999 18.51 0.849999C19.13 0.849999 19.68 0.839999 20.16 0.819999C20.64 0.799999 21.07 0.78 21.45 0.76V1.33C20.79 1.49 20.07 1.8 19.29 2.26C18.51 2.7 17.68 3.42 16.8 4.42L10.92 11.14H8.4ZM35.2905 6.16V24.4C35.2905 25.36 35.5205 26 35.9805 26.32C36.4605 26.64 37.1105 26.8 37.9305 26.8V27.43C37.3905 27.41 36.6405 27.38 35.6805 27.34C34.7205 27.32 33.7105 27.31 32.6505 27.31C31.8905 27.31 31.1305 27.32 30.3705 27.34C29.6305 27.38 29.0705 27.41 28.6905 27.43V26.8C29.3305 26.8 29.7805 26.65 30.0405 26.35C30.3005 26.07 30.4305 25.52 30.4305 24.7V9.76C30.4305 8.86 30.3005 8.2 30.0405 7.78C29.7805 7.34 29.3105 7.12 28.6305 7.12V6.49C29.2705 6.55 29.8905 6.58 30.4905 6.58C31.4105 6.58 32.2705 6.55 33.0705 6.49C33.8705 6.41 34.6105 6.3 35.2905 6.16ZM39.8805 6.04C40.9005 6.04 41.8005 6.32 42.5805 6.88C43.3805 7.42 44.0105 8.25 44.4705 9.37C44.9505 10.47 45.1905 11.86 45.1905 13.54C45.1905 15.12 45.0105 16.47 44.6505 17.59C44.3105 18.71 43.8205 19.63 43.1805 20.35C42.5605 21.07 41.8205 21.6 40.9605 21.94C40.1205 22.26 39.2105 22.42 38.2305 22.42C37.4905 22.42 36.8005 22.31 36.1605 22.09C35.5405 21.89 35.0505 21.56 34.6905 21.1L34.9905 20.71C35.1705 20.99 35.4205 21.2 35.7405 21.34C36.0605 21.48 36.4005 21.55 36.7605 21.55C37.5805 21.55 38.2305 21.27 38.7105 20.71C39.2105 20.13 39.5705 19.29 39.7905 18.19C40.0105 17.09 40.1205 15.75 40.1205 14.17C40.1205 12.43 40.0205 11.08 39.8205 10.12C39.6205 9.14 39.3505 8.45 39.0105 8.05C38.6705 7.65 38.2705 7.45 37.8105 7.45C37.1705 7.45 36.5905 7.7 36.0705 8.2C35.5705 8.68 35.2905 9.34 35.2305 10.18L35.1705 8.92C35.5905 7.96 36.2105 7.24 37.0305 6.76C37.8505 6.28 38.8005 6.04 39.8805 6.04ZM60.8039 6.04C62.5639 6.04 63.9439 6.56 64.9439 7.6C65.9439 8.64 66.4439 10.35 66.4439 12.73H56.8139L56.7839 12.16H62.3639C62.4039 11.18 62.3639 10.28 62.2439 9.46C62.1239 8.62 61.9239 7.95 61.6439 7.45C61.3839 6.95 61.0339 6.7 60.5939 6.7C59.9939 6.7 59.4839 7.13 59.0639 7.99C58.6439 8.85 58.3839 10.31 58.2839 12.37L58.4039 12.58C58.3639 12.8 58.3439 13.03 58.3439 13.27C58.3439 13.49 58.3439 13.73 58.3439 13.99C58.3439 15.37 58.5239 16.47 58.8839 17.29C59.2639 18.11 59.7339 18.69 60.2939 19.03C60.8539 19.37 61.4339 19.54 62.0339 19.54C62.3739 19.54 62.7539 19.49 63.1739 19.39C63.5939 19.29 64.0339 19.08 64.4939 18.76C64.9539 18.44 65.3939 17.97 65.8139 17.35L66.3239 17.53C66.1039 18.31 65.7239 19.08 65.1839 19.84C64.6639 20.58 63.9939 21.2 63.1739 21.7C62.3539 22.18 61.3639 22.42 60.2039 22.42C58.8839 22.42 57.7039 22.15 56.6639 21.61C55.6239 21.05 54.7939 20.18 54.1739 19C53.5739 17.8 53.2739 16.24 53.2739 14.32C53.2739 12.42 53.6039 10.86 54.2639 9.64C54.9239 8.42 55.8239 7.52 56.9639 6.94C58.1039 6.34 59.3839 6.04 60.8039 6.04ZM78.1411 22.21C77.2211 22.21 76.4611 22.04 75.8611 21.7C75.2611 21.34 74.8211 20.87 74.5411 20.29C74.2611 19.71 74.1211 19.09 74.1211 18.43C74.1211 17.59 74.3111 16.9 74.6911 16.36C75.0911 15.82 75.6011 15.39 76.2211 15.07C76.8411 14.73 77.4911 14.45 78.1711 14.23C78.8511 14.01 79.5011 13.8 80.1211 13.6C80.7411 13.38 81.2411 13.13 81.6211 12.85C82.0011 12.55 82.1911 12.17 82.1911 11.71V9.22C82.1911 8.78 82.1211 8.37 81.9811 7.99C81.8611 7.59 81.6311 7.27 81.2911 7.03C80.9711 6.77 80.5211 6.64 79.9411 6.64C79.5811 6.64 79.2311 6.69 78.8911 6.79C78.5511 6.89 78.2511 7.05 77.9911 7.27C78.6311 7.49 79.1011 7.82 79.4011 8.26C79.7211 8.7 79.8811 9.19 79.8811 9.73C79.8811 10.47 79.6211 11.06 79.1011 11.5C78.6011 11.92 78.0011 12.13 77.3011 12.13C76.5411 12.13 75.9511 11.89 75.5311 11.41C75.1311 10.93 74.9311 10.35 74.9311 9.67C74.9311 9.07 75.0811 8.57 75.3811 8.17C75.6811 7.75 76.1211 7.37 76.7011 7.03C77.2811 6.69 77.9811 6.44 78.8011 6.28C79.6211 6.12 80.4911 6.04 81.4111 6.04C82.3511 6.04 83.2111 6.14 83.9911 6.34C84.7911 6.52 85.4711 6.89 86.0311 7.45C86.4711 7.91 86.7511 8.47 86.8711 9.13C86.9911 9.79 87.0511 10.63 87.0511 11.65V19.75C87.0511 20.25 87.0911 20.6 87.1711 20.8C87.2711 20.98 87.4211 21.07 87.6211 21.07C87.8011 21.07 87.9711 21.02 88.1311 20.92C88.2911 20.82 88.4511 20.71 88.6111 20.59L88.9411 21.1C88.5011 21.46 87.9811 21.74 87.3811 21.94C86.7811 22.12 86.1311 22.21 85.4311 22.21C84.6311 22.21 84.0011 22.11 83.5411 21.91C83.1011 21.69 82.7811 21.4 82.5811 21.04C82.4011 20.68 82.3011 20.28 82.2811 19.84C81.8411 20.56 81.2911 21.14 80.6311 21.58C79.9711 22 79.1411 22.21 78.1411 22.21ZM80.6311 20.05C80.9511 20.05 81.2311 19.99 81.4711 19.87C81.7311 19.73 81.9711 19.5 82.1911 19.18V12.94C82.0311 13.22 81.8111 13.49 81.5311 13.75C81.2711 13.99 80.9911 14.24 80.6911 14.5C80.3911 14.74 80.1011 15.01 79.8211 15.31C79.5611 15.61 79.3411 15.97 79.1611 16.39C79.0011 16.79 78.9211 17.28 78.9211 17.86C78.9211 18.64 79.0811 19.2 79.4011 19.54C79.7211 19.88 80.1311 20.05 80.6311 20.05ZM112.144 6.49C112.064 7.37 112.004 8.22 111.964 9.04C111.944 9.86 111.934 10.49 111.934 10.93C111.934 11.33 111.944 11.72 111.964 12.1C111.984 12.46 112.004 12.77 112.024 13.03H111.334C111.054 11.57 110.684 10.41 110.224 9.55C109.784 8.67 109.314 8.05 108.814 7.69C108.314 7.31 107.824 7.12 107.344 7.12H106.414V18.91C106.414 19.89 106.654 20.55 107.134 20.89C107.634 21.21 108.294 21.37 109.114 21.37V22C108.594 21.98 107.874 21.96 106.954 21.94C106.034 21.9 105.054 21.88 104.014 21.88C102.974 21.88 101.984 21.9 101.044 21.94C100.124 21.96 99.3935 21.98 98.8535 22V21.37C99.7135 21.37 100.374 21.25 100.834 21.01C101.314 20.75 101.554 20.13 101.554 19.15V7.12H100.564C100.104 7.12 99.6235 7.31 99.1235 7.69C98.6235 8.07 98.1535 8.69 97.7135 9.55C97.2935 10.41 96.9335 11.57 96.6335 13.03H95.9435C95.9835 12.79 96.0035 12.48 96.0035 12.1C96.0235 11.72 96.0335 11.33 96.0335 10.93C96.0335 10.49 96.0135 9.87 95.9735 9.07C95.9535 8.25 95.9035 7.39 95.8235 6.49H99.1235C99.6435 6.49 100.344 6.51 101.224 6.55C102.124 6.59 103.034 6.61 103.954 6.61C104.914 6.61 105.844 6.59 106.744 6.55C107.644 6.51 108.354 6.49 108.874 6.49H112.144ZM134.633 6.46V7.09C134.253 7.21 133.883 7.46 133.523 7.84C133.183 8.22 132.853 8.88 132.533 9.82L128.543 21.34L127.223 24.13L120.353 8.77C120.013 8.01 119.683 7.54 119.363 7.36C119.043 7.18 118.772 7.09 118.552 7.09V6.46C119.293 6.52 120.053 6.57 120.833 6.61C121.613 6.63 122.353 6.64 123.053 6.64C123.933 6.64 124.713 6.62 125.393 6.58C126.073 6.54 126.713 6.5 127.313 6.46V7.09C126.933 7.09 126.573 7.11 126.233 7.15C125.893 7.19 125.653 7.31 125.513 7.51C125.393 7.69 125.433 8.02 125.633 8.5L129.443 17.62L129.143 17.83L130.973 12.52C131.393 11.3 131.573 10.3 131.513 9.52C131.453 8.74 131.223 8.15 130.823 7.75C130.423 7.35 129.913 7.13 129.293 7.09V6.46C129.593 6.48 129.923 6.5 130.283 6.52C130.663 6.54 131.033 6.56 131.393 6.58C131.753 6.58 132.063 6.58 132.323 6.58C132.703 6.58 133.123 6.57 133.583 6.55C134.043 6.53 134.393 6.5 134.633 6.46ZM128.543 21.34L127.343 24.76C127.163 25.26 126.963 25.69 126.743 26.05C126.543 26.41 126.303 26.7 126.023 26.92C125.743 27.14 125.383 27.31 124.943 27.43C124.523 27.57 123.983 27.64 123.323 27.64C122.803 27.64 122.253 27.55 121.673 27.37C121.113 27.21 120.633 26.94 120.233 26.56C119.853 26.18 119.663 25.67 119.663 25.03C119.663 24.37 119.903 23.84 120.383 23.44C120.863 23.06 121.513 22.87 122.333 22.87C123.073 22.87 123.663 23.04 124.103 23.38C124.563 23.72 124.793 24.23 124.793 24.91C124.793 25.33 124.653 25.74 124.373 26.14C124.093 26.54 123.653 26.84 123.053 27.04C123.193 27.06 123.343 27.07 123.503 27.07C123.683 27.09 123.823 27.1 123.923 27.1C124.543 27.1 125.093 26.9 125.573 26.5C126.053 26.12 126.433 25.52 126.713 24.7L127.763 21.52L128.543 21.34ZM148.025 6.16V24.4C148.025 25.36 148.255 26 148.715 26.32C149.195 26.64 149.845 26.8 150.665 26.8V27.43C150.125 27.41 149.375 27.38 148.415 27.34C147.455 27.32 146.445 27.31 145.385 27.31C144.625 27.31 143.865 27.32 143.105 27.34C142.365 27.38 141.805 27.41 141.425 27.43V26.8C142.065 26.8 142.515 26.65 142.775 26.35C143.035 26.07 143.165 25.52 143.165 24.7V9.76C143.165 8.86 143.035 8.2 142.775 7.78C142.515 7.34 142.045 7.12 141.365 7.12V6.49C142.005 6.55 142.625 6.58 143.225 6.58C144.145 6.58 145.005 6.55 145.805 6.49C146.605 6.41 147.345 6.3 148.025 6.16ZM152.615 6.04C153.635 6.04 154.535 6.32 155.315 6.88C156.115 7.42 156.745 8.25 157.205 9.37C157.685 10.47 157.925 11.86 157.925 13.54C157.925 15.12 157.745 16.47 157.385 17.59C157.045 18.71 156.555 19.63 155.915 20.35C155.295 21.07 154.555 21.6 153.695 21.94C152.855 22.26 151.945 22.42 150.965 22.42C150.225 22.42 149.535 22.31 148.895 22.09C148.275 21.89 147.785 21.56 147.425 21.1L147.725 20.71C147.905 20.99 148.155 21.2 148.475 21.34C148.795 21.48 149.135 21.55 149.495 21.55C150.315 21.55 150.965 21.27 151.445 20.71C151.945 20.13 152.305 19.29 152.525 18.19C152.745 17.09 152.855 15.75 152.855 14.17C152.855 12.43 152.755 11.08 152.555 10.12C152.355 9.14 152.085 8.45 151.745 8.05C151.405 7.65 151.005 7.45 150.545 7.45C149.905 7.45 149.325 7.7 148.805 8.2C148.305 8.68 148.025 9.34 147.965 10.18L147.905 8.92C148.325 7.96 148.945 7.24 149.765 6.76C150.585 6.28 151.535 6.04 152.615 6.04Z" fill="black"/>
</svg>
