<svg width="22" height="23" viewBox="0 0 22 23" fill="none" xmlns="http://www.w3.org/2000/svg">
<path d="M10.74 0.76V1.36C10.12 1.38 9.65 1.46 9.33 1.6C9.01 1.72 8.8 1.96 8.7 2.32C8.6 2.66 8.55 3.2 8.55 3.94V18.82C8.55 19.54 8.6 20.08 8.7 20.44C8.82 20.8 9.03 21.04 9.33 21.16C9.65 21.28 10.12 21.36 10.74 21.4V22C10.18 21.96 9.46 21.94 8.58 21.94C7.72 21.92 6.85 21.91 5.97 21.91C4.95 21.91 3.99 21.92 3.09 21.94C2.19 21.94 1.47 21.96 0.93 22V21.4C1.55 21.36 2.01 21.28 2.31 21.16C2.63 21.04 2.84 20.8 2.94 20.44C3.06 20.08 3.12 19.54 3.12 18.82V3.94C3.12 3.2 3.06 2.66 2.94 2.32C2.84 1.96 2.63 1.72 2.31 1.6C2.01 1.46 1.55 1.38 0.93 1.36V0.76C1.47 0.78 2.19 0.799999 3.09 0.819999C3.99 0.839999 4.95 0.849999 5.97 0.849999C6.85 0.849999 7.72 0.839999 8.58 0.819999C9.46 0.799999 10.18 0.78 10.74 0.76ZM9.03 10.66C10.81 10.66 12.34 10.77 13.62 10.99C14.9 11.21 15.91 11.62 16.65 12.22C17.41 12.8 17.91 13.65 18.15 14.77L19.02 18.85C19.18 19.63 19.36 20.17 19.56 20.47C19.76 20.77 20.05 20.91 20.43 20.89C20.63 20.89 20.81 20.85 20.97 20.77C21.13 20.67 21.29 20.53 21.45 20.35L21.87 20.74C21.29 21.34 20.66 21.77 19.98 22.03C19.32 22.29 18.53 22.42 17.61 22.42C16.41 22.42 15.44 22.19 14.7 21.73C13.96 21.27 13.49 20.42 13.29 19.18L12.48 14.32C12.36 13.52 12.16 12.89 11.88 12.43C11.6 11.97 11.19 11.64 10.65 11.44C10.11 11.24 9.37 11.14 8.43 11.14H7.71V10.66H9.03ZM8.4 11.14V10.66C9.28 10.62 10.08 10.36 10.8 9.88C11.54 9.4 12.39 8.61 13.35 7.51L14.76 5.86C15.56 4.94 16 4.15 16.08 3.49C16.18 2.83 16.01 2.31 15.57 1.93C15.15 1.55 14.55 1.35 13.77 1.33V0.76C14.29 0.78 14.78 0.799999 15.24 0.819999C15.72 0.819999 16.22 0.829999 16.74 0.849999C17.26 0.849999 17.85 0.849999 18.51 0.849999C19.13 0.849999 19.68 0.839999 20.16 0.819999C20.64 0.799999 21.07 0.78 21.45 0.76V1.33C20.79 1.49 20.07 1.8 19.29 2.26C18.51 2.7 17.68 3.42 16.8 4.42L10.92 11.14H8.4Z" fill="#3481F5"/>
</svg>
