<svg width="13" height="20" viewBox="0 0 13 20" fill="none" xmlns="http://www.w3.org/2000/svg">
<g clip-path="url(#clip0_8_19)">
<path d="M11.4832 0.00407466L8.62112 0C5.40568 0 3.32772 1.89166 3.32772 4.81951V7.04163H0.450033C0.201367 7.04163 0 7.2205 0 7.44115V10.6608C0 10.8814 0.201597 11.0601 0.450033 11.0601H3.32772V19.1842C3.32772 19.4048 3.52909 19.5834 3.77775 19.5834H7.53231C7.78098 19.5834 7.98235 19.4046 7.98235 19.1842V11.0601H11.347C11.5957 11.0601 11.7971 10.8814 11.7971 10.6608L11.7984 7.44115C11.7984 7.33521 11.7509 7.23376 11.6666 7.15877C11.5824 7.0838 11.4676 7.04163 11.3482 7.04163H7.98235V5.15791C7.98235 4.25252 8.2255 3.7929 9.55471 3.7929L11.4827 3.79229C11.7312 3.79229 11.9325 3.61341 11.9325 3.39297V0.403392C11.9325 0.183156 11.7314 0.00448213 11.4832 0.00407466Z" fill="white"/>
</g>
<defs>
<clipPath id="clip0_8_19">
<rect width="12.2615" height="19.5834" fill="white"/>
</clipPath>
</defs>
</svg>
