<svg width="23" height="23" viewBox="0 0 23 23" fill="none" xmlns="http://www.w3.org/2000/svg">
<path d="M22.0707 2.61635C21.2024 3.07538 20.3339 3.36205 19.4661 3.47719C20.4463 2.75429 21.1094 1.73302 21.4549 0.413451C20.5581 1.06739 19.6013 1.51478 18.5839 1.75586C17.6874 0.585451 16.586 0 15.2786 0C14.0277 0 12.9612 0.542104 12.0785 1.62655C11.1964 2.71093 10.7553 4.02183 10.7553 5.5594C10.7553 5.97242 10.7926 6.39715 10.8673 6.83315C9.01872 6.71842 7.28457 6.14757 5.66463 5.12057C4.04477 4.09344 2.67002 2.72505 1.5404 1.01536C1.12959 1.87578 0.92412 2.81114 0.92412 3.8209C0.92412 4.77331 1.10614 5.657 1.47044 6.47173C1.8345 7.28633 2.32476 7.94605 2.94098 8.45101C2.21263 8.41653 1.53111 8.18124 0.896359 7.74518V7.81402C0.896359 9.15668 1.23946 10.3355 1.92559 11.3513C2.61181 12.367 3.4778 13.0064 4.52336 13.2704C4.1312 13.3965 3.73434 13.4596 3.33294 13.4596C3.0715 13.4596 2.78672 13.431 2.47868 13.374C2.76808 14.4869 3.30028 15.4016 4.07508 16.1193C4.85004 16.8363 5.72765 17.206 6.70799 17.2295C5.06488 18.8128 3.193 19.6044 1.09236 19.6044C0.690832 19.6044 0.326826 19.582 0 19.5359C2.1007 21.1995 4.41604 22.0314 6.94618 22.0314C8.552 22.0314 10.0598 21.719 11.4691 21.0934C12.8792 20.4683 14.0834 19.6305 15.0825 18.5803C16.0813 17.5305 16.9427 16.3227 17.6662 14.9572C18.3896 13.5917 18.9287 12.166 19.2837 10.6801C19.6384 9.19382 19.8158 7.70527 19.8158 6.21327C19.8158 5.89194 19.8111 5.65109 19.8017 5.49036C20.6889 4.69897 21.4451 3.74065 22.0707 2.61635Z" fill="white"/>
</svg>
