<svg width="25" height="17" viewBox="0 0 25 17" fill="none" xmlns="http://www.w3.org/2000/svg">
<path d="M24.3929 14.8167C24.3633 14.7428 24.3356 14.6815 24.3098 14.6324C23.8843 13.7476 23.0713 12.6615 21.8711 11.3738L21.8457 11.3443L21.8331 11.3299L21.8202 11.3151H21.8074C21.2626 10.7155 20.9177 10.3123 20.7732 10.1059C20.509 9.71273 20.4498 9.31473 20.5942 8.91148C20.6962 8.6068 21.0796 7.96336 21.7434 6.9803C22.0924 6.45929 22.3689 6.04173 22.5732 5.72714C24.0459 3.46633 24.6844 2.02164 24.4885 1.39252L24.4124 1.2455C24.3613 1.15699 24.2294 1.07601 24.0168 1.00217C23.8038 0.928478 23.5314 0.916292 23.1994 0.965401L19.5223 0.994732C19.4627 0.970358 19.3776 0.972631 19.2669 1.00217C19.1562 1.03171 19.1008 1.04653 19.1008 1.04653L19.0368 1.08345L18.986 1.12781C18.9435 1.15714 18.8966 1.20873 18.8455 1.28247C18.7946 1.35596 18.7522 1.44219 18.7181 1.54047C18.3178 2.72979 17.8626 3.83556 17.3518 4.85773C17.0368 5.46723 16.7476 5.99546 16.4834 6.44272C16.2196 6.88982 15.9983 7.21922 15.8196 7.43039C15.6407 7.64175 15.4793 7.81108 15.3343 7.93899C15.1896 8.06696 15.0791 8.12102 15.0025 8.10124C14.9259 8.08147 14.8536 8.06185 14.7852 8.04222C14.6662 7.9537 14.5704 7.83334 14.4982 7.68099C14.4256 7.52866 14.3768 7.33693 14.3513 7.10593C14.3258 6.87479 14.3108 6.67597 14.3065 6.50881C14.3025 6.34187 14.3043 6.10572 14.313 5.80104C14.3219 5.4962 14.3258 5.28995 14.3258 5.18182C14.3258 4.80826 14.3322 4.40283 14.3448 3.96544C14.3577 3.52804 14.3681 3.18149 14.3768 2.92618C14.3855 2.6706 14.3896 2.40023 14.3896 2.11517C14.3896 1.83012 14.3745 1.60656 14.3448 1.44431C14.3155 1.28226 14.2705 1.12497 14.2111 0.972475C14.1514 0.820138 14.064 0.702294 13.9494 0.618638C13.8345 0.535083 13.6916 0.468777 13.5217 0.419513C13.0705 0.301618 12.4959 0.237843 11.7978 0.227928C10.2146 0.208305 9.19738 0.326354 8.74623 0.581921C8.56748 0.689901 8.40573 0.837437 8.26111 1.02406C8.10785 1.24038 8.08648 1.35843 8.19711 1.37785C8.70791 1.46621 9.06952 1.67757 9.28235 2.01173L9.35905 2.18881C9.4187 2.31657 9.47826 2.54275 9.53788 2.86705C9.59741 3.19134 9.63582 3.5501 9.65272 3.94307C9.6952 4.66071 9.6952 5.27503 9.65272 5.78606C9.6101 6.2973 9.56986 6.69528 9.53144 6.98034C9.49303 7.2654 9.43561 7.49638 9.35905 7.67325C9.28235 7.85018 9.23132 7.95831 9.20574 7.99755C9.1802 8.0368 9.15891 8.06154 9.14202 8.07123C9.03137 8.1202 8.91631 8.14514 8.79721 8.14514C8.67795 8.14514 8.53332 8.07625 8.36311 7.93858C8.19296 7.8009 8.01635 7.6118 7.8333 7.37095C7.65026 7.13005 7.44384 6.7934 7.21393 6.36097C6.9842 5.92854 6.74584 5.41745 6.49898 4.82773L6.29474 4.40004C6.16706 4.12489 5.99265 3.72428 5.77133 3.19852C5.54988 2.67257 5.35414 2.16381 5.18397 1.67235C5.11594 1.46595 5.01376 1.30881 4.87759 1.20067L4.81369 1.15632C4.7712 1.11707 4.703 1.07539 4.60945 1.03098C4.51576 0.986625 4.418 0.954815 4.31576 0.935242L0.817314 0.964574C0.459818 0.964574 0.217253 1.0581 0.0895307 1.24488L0.038415 1.33323C0.0128796 1.38245 0 1.46104 0 1.56923C0 1.67736 0.0255355 1.81008 0.0766511 1.96722C0.58736 3.35325 1.14275 4.68995 1.74281 5.97754C2.34287 7.26514 2.86431 8.30233 3.30682 9.08819C3.74942 9.87462 4.20057 10.6168 4.66025 11.3145C5.11993 12.0124 5.42421 12.4597 5.57309 12.6562C5.72214 12.853 5.83921 13.0002 5.92432 13.0985L6.24358 13.4522C6.44787 13.6882 6.74785 13.9708 7.14367 14.3C7.53958 14.6294 7.97789 14.9537 8.45882 15.2734C8.93983 15.5926 9.49943 15.853 10.1379 16.0545C10.7763 16.2561 11.3976 16.3371 12.002 16.298H13.4704C13.7681 16.2683 13.9938 16.1603 14.1471 15.9736L14.1979 15.8997C14.2321 15.841 14.2641 15.7499 14.2935 15.6272C14.3235 15.5044 14.3383 15.3691 14.3383 15.2218C14.3296 14.7992 14.3574 14.4183 14.4212 14.0793C14.4848 13.7403 14.5573 13.4848 14.6385 13.3127C14.7195 13.1407 14.811 12.9956 14.9129 12.878C15.0149 12.7601 15.0876 12.6887 15.1303 12.6641C15.1727 12.6393 15.2065 12.6225 15.232 12.6125C15.4363 12.5339 15.6768 12.61 15.9536 12.8412C16.2304 13.0722 16.4899 13.3574 16.7326 13.6964C16.9752 14.0356 17.2667 14.4163 17.6071 14.8388C17.9478 15.2616 18.2457 15.5758 18.5008 15.7825L18.7561 15.9595C18.9267 16.0774 19.148 16.1856 19.4204 16.2839C19.6924 16.3821 19.9306 16.4068 20.1351 16.3576L23.4037 16.2987C23.727 16.2987 23.9785 16.2369 24.1569 16.1142C24.3358 15.9913 24.442 15.856 24.4762 15.7089C24.5104 15.5615 24.5122 15.3943 24.4827 15.2072C24.4524 15.0208 24.4226 14.8904 24.3929 14.8167Z" fill="white"/>
</svg>
