<svg width="24" height="20" viewBox="0 0 24 20" fill="none" xmlns="http://www.w3.org/2000/svg">
<path d="M22.3887 1.63908C21.5478 0.474883 19.9952 0 17.0301 0H6.26655C3.23352 0 1.6546 0.505515 0.816817 1.74497C0 2.95344 0 4.73404 0 7.19842V11.8955C0 16.6698 0.969148 19.0939 6.26655 19.0939H17.0301C19.6015 19.0939 21.0264 18.6749 21.9482 17.6474C22.8935 16.5938 23.2968 14.8737 23.2968 11.8955V7.19842C23.2968 4.59952 23.2337 2.80843 22.3887 1.63908ZM14.9567 10.1955L10.069 13.1703C9.9597 13.2369 9.8402 13.2699 9.72085 13.2699C9.58573 13.2699 9.45092 13.2275 9.3315 13.1433C9.10665 12.9846 8.96935 12.7008 8.96935 12.3946V6.46395C8.96935 6.15833 9.10627 5.87477 9.33068 5.716C9.55515 5.55725 9.83433 5.5464 10.0672 5.6873L14.955 8.64302C15.2036 8.79338 15.3597 9.09235 15.3601 9.41854C15.3604 9.74499 15.205 10.0444 14.9567 10.1955Z" fill="white"/>
</svg>
